<?xml version="1.0" encoding="UTF-8" standalone="no"?><!DOCTYPE svg PUBLIC "-//W3C//DTD SVG 1.1//EN" "http://www.w3.org/Graphics/SVG/1.1/DTD/svg11.dtd"><svg width="100%" height="100%" viewBox="0 0 1009 1184" version="1.1" xmlns="http://www.w3.org/2000/svg" xmlns:xlink="http://www.w3.org/1999/xlink" xml:space="preserve" xmlns:serif="http://www.serif.com/" style="fill-rule:evenodd;clip-rule:evenodd;stroke-linejoin:round;stroke-miterlimit:2;"><g><g id="By-roop" serif:id="By roop"><path d="M121.13,1172.13c4.535,-0.378 8.125,-0.945 10.77,-1.701c2.646,-0.756 4.63,-1.952 5.953,-3.59c1.322,-1.638 2.173,-3.811 2.551,-6.519c0.378,-2.709 0.567,-6.205 0.567,-10.488l0,-70.294c0,-3.275 -0.284,-6.267 -0.851,-8.975c-0.567,-2.709 -1.574,-5.039 -3.023,-6.992c-1.449,-1.952 -3.464,-3.464 -6.047,-4.535c-2.582,-1.071 -5.889,-1.669 -9.92,-1.795l0,-4.157c11.589,0 23.242,-0.189 34.957,-0.567c11.716,-0.378 23.495,-0.567 35.336,-0.567c5.039,0 10.047,0.724 15.023,2.173c4.976,1.449 9.479,3.622 13.511,6.519c4.031,2.898 7.306,6.488 9.826,10.771c2.519,4.283 3.779,9.259 3.779,14.928c0,6.047 -1.953,11.275 -5.858,15.684c-3.905,4.409 -8.566,7.558 -13.983,9.448l0,0.378c3.779,0.756 7.464,2.11 11.054,4.063c3.59,1.952 6.771,4.346 9.543,7.18c2.771,2.835 4.976,6.047 6.613,9.637c1.638,3.591 2.457,7.464 2.457,11.621c0,6.299 -1.165,11.59 -3.496,15.873c-2.33,4.283 -5.574,7.716 -9.731,10.299c-4.158,2.582 -9.039,4.44 -14.645,5.574c-5.606,1.134 -11.684,1.701 -18.235,1.701c-4.031,0 -9.668,-0.315 -16.912,-0.945c-7.243,-0.63 -16.849,-0.945 -28.817,-0.945c-3.905,0 -7.338,0.032 -10.298,0.094c-2.96,0.063 -5.606,0.126 -7.936,0.189c-2.331,0.063 -4.473,0.126 -6.425,0.189c-1.953,0.063 -3.874,0.158 -5.763,0.284l0,-4.535Zm45.161,-5.858c3.024,1.386 6.11,2.393 9.26,3.023c3.149,0.63 6.361,0.945 9.637,0.945c8.818,0 15.998,-2.362 21.541,-7.086c5.543,-4.724 8.315,-11.621 8.315,-20.691c0,-5.039 -1.229,-9.858 -3.685,-14.456c-2.457,-4.598 -5.575,-8.472 -9.354,-11.621c-5.543,1.386 -10.897,2.079 -16.062,2.079c-4.409,0 -8.156,-0.221 -11.243,-0.662c-3.086,-0.441 -5.889,-1.165 -8.409,-2.173l0,50.642Zm0,-57.255c2.142,0.755 4.441,1.385 6.898,1.889c2.456,0.504 5.196,0.756 8.219,0.756c3.906,0 7.401,-0.661 10.488,-1.984c3.086,-1.323 5.7,-3.149 7.842,-5.48c2.141,-2.331 3.779,-5.07 4.913,-8.22c1.133,-3.149 1.7,-6.488 1.7,-10.015c0,-9.07 -2.519,-15.747 -7.558,-20.03c-5.039,-4.283 -11.905,-6.424 -20.597,-6.424c-2.016,0 -3.968,0.063 -5.858,0.189c-1.889,0.125 -3.905,0.251 -6.047,0.377l0,48.942Z" style="fill:#8338ec;fill-rule:nonzero;"/><path d="M228.8,1051.95c5.543,0.252 11.054,0.504 16.534,0.756c5.48,0.252 10.991,0.378 16.534,0.378c11.464,0 22.864,-0.378 34.202,-1.134l0,4.535c-4.283,0 -8.062,0.725 -11.338,2.173c-3.275,1.449 -4.913,3.874 -4.913,7.275c0,1.26 1.134,3.559 3.402,6.897c2.267,3.339 5.133,7.307 8.598,11.905c3.464,4.598 7.212,9.574 11.243,14.928c4.031,5.354 7.747,10.676 11.148,15.967c0.882,-1.386 2.079,-3.338 3.591,-5.858c1.511,-2.519 3.149,-5.322 4.913,-8.408c1.763,-3.087 3.559,-6.299 5.385,-9.637c1.827,-3.339 3.496,-6.52 5.008,-9.543c1.511,-3.023 2.74,-5.795 3.684,-8.314c0.945,-2.52 1.418,-4.472 1.418,-5.858c0,-4.409 -1.418,-7.401 -4.252,-8.976c-2.834,-1.575 -6.141,-2.425 -9.921,-2.551l0,-4.535c4.41,0.252 8.787,0.504 13.133,0.756c4.346,0.252 8.724,0.378 13.133,0.378c4.031,0 8.031,-0.126 11.999,-0.378c3.968,-0.252 7.968,-0.504 11.999,-0.756l0,4.535c-3.779,0.126 -7.054,0.85 -9.826,2.173c-2.771,1.323 -5.385,3.213 -7.842,5.669c-2.456,2.457 -4.85,5.417 -7.18,8.881c-2.331,3.465 -4.945,7.338 -7.842,11.621l-23.998,35.903l0,34.202c0,3.402 0.252,6.204 0.756,8.409c0.504,2.205 1.48,3.937 2.929,5.196c1.448,1.26 3.464,2.142 6.046,2.646c2.583,0.504 5.953,0.819 10.11,0.945l0.189,4.535c-5.417,-0.252 -10.771,-0.441 -16.062,-0.567c-5.291,-0.126 -10.582,-0.189 -15.873,-0.189c-5.669,0 -11.243,0.063 -16.723,0.189c-5.48,0.126 -10.991,0.315 -16.534,0.567l0,-4.535c4.157,-0.126 7.527,-0.441 10.109,-0.945c2.583,-0.504 4.598,-1.386 6.047,-2.646c1.449,-1.259 2.425,-2.991 2.929,-5.196c0.504,-2.205 0.756,-5.007 0.756,-8.409l0,-32.69l-39.304,-51.776c-3.275,-4.283 -6.677,-7.684 -10.204,-10.204c-3.527,-2.519 -8.188,-3.779 -13.983,-3.779l0,-4.535Z" style="fill:#8338ec;fill-rule:nonzero;"/><path d="M414.908,1052.33c4.661,0.252 9.228,0.441 13.7,0.567c4.472,0.126 9.542,0.189 15.211,0.189c6.803,0 13.606,-0.189 20.408,-0.567c6.803,-0.378 13.92,-0.567 21.353,-0.567c6.55,0 12.44,0.945 17.668,2.834c5.228,1.89 9.7,4.504 13.416,7.842c3.716,3.339 6.551,7.212 8.503,11.622c1.953,4.409 2.929,9.196 2.929,14.361c0,4.409 -0.724,8.282 -2.173,11.621c-1.449,3.338 -3.433,6.236 -5.952,8.692c-2.52,2.457 -5.48,4.504 -8.881,6.141c-3.402,1.638 -7.118,2.898 -11.149,3.78c2.645,4.283 5.921,9.353 9.826,15.211c3.905,5.858 8.22,11.527 12.944,17.007c4.724,5.479 9.794,10.298 15.211,14.455c5.417,4.157 10.96,6.74 16.629,7.748l0,3.401c-3.653,-0.252 -7.212,-0.441 -10.676,-0.567c-3.465,-0.126 -7.024,-0.189 -10.677,-0.189c-3.149,0 -6.299,0.063 -9.448,0.189c-3.149,0.126 -6.299,0.315 -9.448,0.567c-7.936,-8.44 -15.274,-17.259 -22.014,-26.455c-6.74,-9.196 -12.881,-18.833 -18.424,-28.911c-2.141,-0.252 -4.566,-0.63 -7.275,-1.134c-2.708,-0.504 -4.755,-1.259 -6.141,-2.267l0,32.69c0,4.283 0.157,7.748 0.472,10.393c0.315,2.645 1.134,4.724 2.457,6.236c1.323,1.511 3.244,2.614 5.763,3.307c2.52,0.692 5.984,1.228 10.393,1.606l0,4.535c-4.409,-0.252 -9.228,-0.441 -14.456,-0.567c-5.227,-0.126 -10.55,-0.189 -15.967,-0.189c-5.795,0 -11.526,0.063 -17.195,0.189c-5.669,0.126 -11.338,0.315 -17.007,0.567l0,-4.535c4.661,-0.378 8.346,-0.914 11.054,-1.606c2.709,-0.693 4.724,-1.796 6.047,-3.307c1.323,-1.512 2.173,-3.591 2.551,-6.236c0.378,-2.645 0.567,-6.11 0.567,-10.393l0,-71.805c0,-3.78 -0.189,-6.992 -0.567,-9.637c-0.378,-2.646 -1.228,-4.85 -2.551,-6.614c-1.323,-1.764 -3.338,-3.118 -6.047,-4.063c-2.708,-0.945 -6.393,-1.606 -11.054,-1.984l0,-4.157Zm45.54,58.2c4.031,1.89 8.251,2.835 12.66,2.835c8.315,0 15.023,-2.331 20.125,-6.992c5.102,-4.661 7.653,-11.464 7.653,-20.408c0,-3.779 -0.599,-7.338 -1.795,-10.676c-1.197,-3.338 -2.929,-6.236 -5.197,-8.692c-2.267,-2.457 -4.976,-4.378 -8.125,-5.764c-3.15,-1.385 -6.677,-2.078 -10.582,-2.078c-2.52,0 -4.976,0.126 -7.37,0.378c-2.393,0.252 -4.85,0.818 -7.369,1.7l0,49.697Z" style="fill:#8338ec;fill-rule:nonzero;"/><path d="M614.801,1049.3c10.708,0 20.503,1.48 29.384,4.44c8.881,2.961 16.534,7.212 22.959,12.755c6.424,5.543 11.4,12.377 14.928,20.502c3.527,8.126 5.29,17.29 5.29,27.494c0,10.204 -1.763,19.369 -5.29,27.494c-3.528,8.126 -8.504,14.96 -14.928,20.503c-6.425,5.543 -14.078,9.794 -22.959,12.755c-8.881,2.96 -18.676,4.44 -29.384,4.44c-10.708,0 -20.502,-1.48 -29.383,-4.44c-8.882,-2.961 -16.535,-7.212 -22.959,-12.755c-6.425,-5.543 -11.401,-12.377 -14.928,-20.503c-3.528,-8.125 -5.291,-17.29 -5.291,-27.494c0,-10.204 1.763,-19.368 5.291,-27.494c3.527,-8.125 8.503,-14.959 14.928,-20.502c6.424,-5.543 14.077,-9.794 22.959,-12.755c8.881,-2.96 18.675,-4.44 29.383,-4.44Zm0,6.802c-7.81,0 -14.581,1.575 -20.313,4.724c-5.732,3.15 -10.456,7.433 -14.172,12.85c-3.717,5.417 -6.457,11.621 -8.22,18.612c-1.764,6.992 -2.646,14.393 -2.646,22.203c0,7.685 0.882,15.054 2.646,22.109c1.763,7.055 4.503,13.29 8.22,18.707c3.716,5.417 8.44,9.7 14.172,12.85c5.732,3.149 12.503,4.724 20.313,4.724c7.811,0 14.582,-1.575 20.314,-4.724c5.731,-3.15 10.455,-7.433 14.172,-12.85c3.716,-5.417 6.456,-11.652 8.22,-18.707c1.763,-7.055 2.645,-14.424 2.645,-22.109c0,-7.81 -0.882,-15.211 -2.645,-22.203c-1.764,-6.991 -4.504,-13.195 -8.22,-18.612c-3.717,-5.417 -8.441,-9.7 -14.172,-12.85c-5.732,-3.149 -12.503,-4.724 -20.314,-4.724Z" style="fill:#8338ec;fill-rule:nonzero;"/><path d="M678.691,1049.3c10.708,0 20.503,1.48 29.384,4.44c8.881,2.961 16.534,7.212 22.959,12.755c6.424,5.543 11.4,12.377 14.928,20.502c3.527,8.126 5.291,17.29 5.291,27.494c0,10.204 -1.764,19.369 -5.291,27.494c-3.528,8.126 -8.504,14.96 -14.928,20.503c-6.425,5.543 -14.078,9.794 -22.959,12.755c-8.881,2.96 -18.676,4.44 -29.384,4.44c-10.708,0 -20.502,-1.48 -29.383,-4.44c-8.882,-2.961 -16.534,-7.212 -22.959,-12.755c-6.425,-5.543 -11.401,-12.377 -14.928,-20.503c-3.527,-8.125 -5.291,-17.29 -5.291,-27.494c0,-10.204 1.764,-19.368 5.291,-27.494c3.527,-8.125 8.503,-14.959 14.928,-20.502c6.425,-5.543 14.077,-9.794 22.959,-12.755c8.881,-2.96 18.675,-4.44 29.383,-4.44Zm0,6.802c-7.81,0 -14.581,1.575 -20.313,4.724c-5.732,3.15 -10.456,7.433 -14.172,12.85c-3.717,5.417 -6.456,11.621 -8.22,18.612c-1.764,6.992 -2.646,14.393 -2.646,22.203c0,7.685 0.882,15.054 2.646,22.109c1.764,7.055 4.503,13.29 8.22,18.707c3.716,5.417 8.44,9.7 14.172,12.85c5.732,3.149 12.503,4.724 20.313,4.724c7.811,0 14.582,-1.575 20.314,-4.724c5.731,-3.15 10.456,-7.433 14.172,-12.85c3.716,-5.417 6.456,-11.652 8.22,-18.707c1.763,-7.055 2.645,-14.424 2.645,-22.109c0,-7.81 -0.882,-15.211 -2.645,-22.203c-1.764,-6.991 -4.504,-13.195 -8.22,-18.612c-3.716,-5.417 -8.441,-9.7 -14.172,-12.85c-5.732,-3.149 -12.503,-4.724 -20.314,-4.724Z" style="fill:#8338ec;fill-rule:nonzero;"/><path d="M810.776,1111.66c2.015,0.882 4.314,1.638 6.897,2.268c2.582,0.629 5.07,0.944 7.464,0.944c8.566,0 15.022,-2.677 19.368,-8.031c4.346,-5.353 6.519,-12.125 6.519,-20.313c0,-4.031 -0.441,-7.779 -1.322,-11.243c-0.882,-3.464 -2.268,-6.488 -4.157,-9.07c-1.89,-2.583 -4.378,-4.598 -7.464,-6.047c-3.087,-1.449 -6.835,-2.173 -11.244,-2.173c-2.897,0 -5.669,0.252 -8.314,0.756c-2.645,0.504 -5.228,1.259 -7.747,2.267l0,50.642Zm-25.321,-33.257c0,-4.283 -0.252,-7.748 -0.756,-10.393c-0.504,-2.646 -1.48,-4.756 -2.929,-6.33c-1.449,-1.575 -3.496,-2.74 -6.141,-3.496c-2.646,-0.756 -6.11,-1.323 -10.393,-1.701l0,-4.535c3.653,0.252 7.873,0.504 12.66,0.756c4.787,0.252 10.141,0.378 16.062,0.378c5.921,0 11.873,-0.315 17.857,-0.945c5.984,-0.63 12.125,-0.945 18.424,-0.945c5.92,0 11.652,0.756 17.195,2.268c5.543,1.511 10.456,3.779 14.739,6.802c4.283,3.024 7.716,6.897 10.299,11.622c2.582,4.724 3.873,10.298 3.873,16.723c0,5.669 -1.165,10.55 -3.496,14.644c-2.33,4.094 -5.416,7.527 -9.259,10.299c-3.842,2.771 -8.188,4.818 -13.038,6.141c-4.85,1.323 -9.858,1.984 -15.022,1.984c-4.158,0 -8.346,-0.315 -12.566,-0.945c-4.221,-0.63 -8.283,-1.7 -12.188,-3.212l0,33.068c0,4.283 0.189,7.779 0.566,10.488c0.378,2.708 1.26,4.881 2.646,6.519c1.386,1.637 3.464,2.834 6.236,3.59c2.771,0.756 6.613,1.323 11.526,1.701l0,3.779c-5.417,-0.252 -10.802,-0.441 -16.156,-0.567c-5.354,-0.126 -10.739,-0.189 -16.156,-0.189c-5.795,0 -11.527,0.063 -17.196,0.189c-5.669,0.126 -11.337,0.315 -17.006,0.567l0,-3.779c4.661,-0.378 8.346,-0.945 11.054,-1.701c2.708,-0.756 4.724,-1.953 6.047,-3.59c1.323,-1.638 2.173,-3.811 2.551,-6.519c0.378,-2.709 0.567,-6.205 0.567,-10.488l0,-72.183Z" style="fill:#8338ec;fill-rule:nonzero;"/></g><path id="outer-Curve" serif:id="outer Curve" d="M503.287,1.585c276.887,0 501.684,224.797 501.684,501.684c0,276.887 -224.797,501.683 -501.684,501.683c-276.886,0 -501.683,-224.796 -501.683,-501.683c0,-276.887 224.797,-501.684 501.683,-501.684Zm0,41.74c253.85,0 459.944,206.094 459.944,459.944c0,253.85 -206.094,459.944 -459.944,459.944c-253.85,0 -459.944,-206.094 -459.944,-459.944c0,-253.85 206.094,-459.944 459.944,-459.944Z" style="fill:url(#_Linear1);"/><circle id="Inner-Circle" serif:id="Inner Circle" cx="503.287" cy="503.269" r="418.949" style="fill:url(#_Linear2);"/><clipPath id="_clip3"><circle cx="503.287" cy="503.269" r="418.949"/></clipPath><g clip-path="url(#_clip3)"><path id="main" d="M196.727,631.55c0,0 69.443,124.063 279.476,66.274c26.588,-7.315 171.737,-39.191 47.794,65.908c-15.016,12.733 -89.702,44.534 -89.702,44.534c0,0 274.462,54.646 366.453,-227.275c0,0 -22.281,16.073 -55.784,21.255c-24.842,3.841 -59.625,-1.311 -76.257,-7.657c-39.062,-14.905 -98.728,-83.031 -100.792,-107.121c-1.77,-20.659 6.77,-33.351 9.369,-45.822c0.879,-4.219 4.377,-10.857 4.576,-16.323c0.288,-7.929 -1.998,-14.617 -1.998,-14.617c6.381,-9.03 15.473,26.639 19.069,31.879c7.699,11.218 25.394,36.011 35.647,46.33c10.98,11.05 21.484,22.61 32.254,32.639c20.606,19.187 39.151,35.997 51.61,32.523c11.192,-3.121 11.061,-14.794 14.858,-29.192c8.429,-31.964 7.439,-83.261 -11.041,-126.017c-6.676,-15.447 -17.306,-32.265 -28.567,-45.081c-9.699,-11.039 -18.92,-20.301 -20.351,-17.205c-3.819,8.265 15.96,40.151 25.635,72.201c9.035,29.932 8.225,59.956 -0.54,72.406c0,0 -18.623,-17.414 -41.621,-46.853c-11.258,-14.412 -24.06,-32.811 -39.204,-47.882c-12.073,-12.014 -28.883,-24.236 -43.54,-32.913c-6.552,-3.879 -13.693,-5.711 -16.866,-7.682c-1.192,-0.74 -3.458,-3.536 -3.458,-3.536c0,0 0.027,-3.474 0.07,-5.728c0.15,-8.008 3.835,-18.67 6.096,-24.069c0.886,-2.113 1.176,-3.12 2.379,-3.9c1.272,-0.823 3.451,-1.059 5.25,-1.042c4.743,0.045 23.236,1.649 23.236,1.649c0,0 91.016,-97.947 0,-126.992c0,0 -176.47,-51.156 -270.297,166.98c0,0 48.435,-47.398 150.274,-35.106l-0.267,7.349c0,0 -65.883,-11.112 -147.573,107.277c-10.618,15.388 -55.34,-20.254 -15.737,-139.432c6.265,-12.59 -15.654,10.4 -20.571,18.148c-18.741,29.525 -35.795,118.862 -21.391,169.405c4.506,15.81 6.258,30.651 19.49,35.047c7.487,2.487 16.854,-4.047 26.533,-8.64c29.035,-13.781 65.504,-47.208 99.474,-64.083c18.236,-9.059 52.126,55.531 7.562,110.886c0,0 46.771,40.378 142.918,9.247c0,0 -14.745,18.004 -64.088,18.968c-23.883,0.467 -54.583,1.778 -97.73,-16.91c0,0 -101.679,69.596 -202.648,70.173Z" style="fill:#ebebeb;"/></g></g><defs><linearGradient id="_Linear1" x1="0" y1="0" x2="1" y2="0" gradientUnits="userSpaceOnUse" gradientTransform="matrix(-1057.09,952.172,-952.172,-1057.09,1145.02,-81.0973)"><stop offset="0" style="stop-color:#fcbf49;stop-opacity:1"/><stop offset="0.3" style="stop-color:#fcc353;stop-opacity:1"/><stop offset="0.38" style="stop-color:#fdcd70;stop-opacity:1"/><stop offset="0.44" style="stop-color:#ffda94;stop-opacity:1"/><stop offset="0.76" style="stop-color:#a5710d;stop-opacity:1"/><stop offset="0.86" style="stop-color:#edae0b;stop-opacity:1"/><stop offset="1" style="stop-color:#ffbe0b;stop-opacity:1"/></linearGradient><linearGradient id="_Linear2" x1="0" y1="0" x2="1" y2="0" gradientUnits="userSpaceOnUse" gradientTransform="matrix(-1307,992.375,-992.375,-1307,1142.19,43.3247)"><stop offset="0" style="stop-color:#8338ec;stop-opacity:1"/><stop offset="0.22" style="stop-color:#8736e8;stop-opacity:1"/><stop offset="0.42" style="stop-color:#9431db;stop-opacity:1"/><stop offset="1" style="stop-color:#ff006e;stop-opacity:1"/></linearGradient></defs></svg>